<?xml version="1.0" standalone="no"?>
<!DOCTYPE svg PUBLIC "-//W3C//DTD SVG 20010904//EN"
 "http://www.w3.org/TR/2001/REC-SVG-20010904/DTD/svg10.dtd">
<svg version="1.0" xmlns="http://www.w3.org/2000/svg"
 width="257.000000pt" height="257.000000pt" viewBox="0 0 257.000000 257.000000"
 preserveAspectRatio="xMidYMid meet">
<metadata>
Created by potrace 1.14, written by Peter Selinger 2001-2017
</metadata>
<g transform="translate(0.000000,257.000000) scale(0.100000,-0.100000)"
fill="#000000" stroke="none">
<path d="M1339 2229 c-19 -32 -29 -39 -56 -39 -25 0 -36 7 -54 36 -22 36 -23
36 -72 29 -66 -8 -67 -9 -67 -55 0 -33 -4 -40 -27 -48 -24 -8 -33 -5 -60 19
-35 30 -42 30 -101 -6 -35 -21 -36 -25 -23 -72 8 -27 6 -35 -15 -54 -22 -21
-28 -22 -67 -12 -38 11 -44 10 -65 -10 -41 -38 -45 -54 -22 -87 20 -27 20 -31
5 -60 -13 -26 -21 -30 -54 -30 -34 0 -42 -5 -59 -34 -35 -60 -35 -69 3 -95 34
-23 45 -53 25 -66 -17 -11 -190 46 -190 63 0 23 -22 92 -30 92 -3 0 -25 -16
-48 -35 -53 -46 -98 -137 -119 -245 -9 -47 -17 -87 -19 -89 -2 -2 -17 8 -35
23 -41 35 -87 58 -93 47 -14 -22 -28 -164 -22 -230 5 -61 36 -172 70 -253 7
-14 2 -16 -36 -11 -24 2 -55 9 -71 13 -34 11 -33 8 51 -98 79 -101 223 -240
286 -277 27 -16 75 -36 108 -45 l58 -16 -30 -29 c-33 -31 -38 -45 -16 -45 8 0
76 -30 152 -67 l139 -68 133 0 c94 0 128 -3 118 -10 -11 -9 -8 -14 16 -28 16
-9 34 -17 40 -17 6 0 51 27 99 60 48 33 90 60 94 60 4 0 47 -28 96 -62 l89
-61 40 18 c33 15 37 20 25 29 -12 8 18 11 117 11 l133 0 120 59 c66 32 135 64
153 71 l34 12 -31 35 -30 35 52 12 c75 17 147 62 239 149 67 64 238 263 238
277 0 2 -12 0 -27 -5 -16 -4 -47 -11 -71 -13 -38 -5 -43 -3 -36 11 33 80 64
187 69 246 6 63 -8 216 -22 238 -6 11 -63 -20 -98 -53 l-31 -29 -17 93 c-10
50 -28 115 -42 144 -22 49 -104 143 -123 143 -5 0 -15 -21 -22 -47 -6 -27 -14
-53 -15 -60 -3 -10 -36 -22 -167 -59 -12 -4 -19 2 -24 21 -5 21 0 33 21 55 26
27 27 33 19 72 -9 42 -10 43 -54 48 -36 4 -47 10 -62 36 -18 30 -18 32 2 57
26 33 26 35 -11 86 -26 35 -36 41 -55 37 -27 -7 -27 -6 -15 26 4 13 11 35 15
51 6 27 6 27 -44 27 -31 0 -66 8 -90 20 -49 25 -55 25 -91 -1 -21 -15 -37 -19
-59 -14 -27 6 -30 10 -30 46 0 43 -10 51 -81 62 -33 5 -37 2 -60 -34z m-43
-409 l55 0 -25 -42 c-14 -24 -31 -43 -38 -43 -10 0 -168 259 -168 277 0 8 53
25 90 30 l25 3 3 -112 3 -113 55 0z m127 209 l37 -10 -37 -67 c-20 -37 -45
-80 -55 -97 l-18 -30 0 108 c0 119 -2 117 73 96z m-483 -179 l0 -50 44 0 44 0
47 -81 c31 -51 44 -84 38 -90 -5 -5 -76 -8 -169 -7 l-159 3 3 28 c7 64 113
247 143 247 5 0 9 -22 9 -50z m839 -155 c10 -33 17 -63 14 -67 -2 -5 -76 -8
-164 -8 -127 0 -161 3 -165 14 -5 14 94 186 108 186 5 0 8 -7 8 -15 0 -12 13
-15 59 -15 52 0 59 2 65 23 6 21 8 19 31 -18 14 -22 34 -67 44 -100z m-1268
-65 c36 -24 46 -35 42 -50 -4 -15 -14 -20 -42 -21 l-36 -1 35 -12 c26 -10 36
-19 38 -39 2 -19 12 -29 37 -39 26 -9 38 -21 46 -46 10 -30 9 -35 -10 -48 -38
-27 -44 -51 -24 -100 17 -42 20 -44 60 -44 37 0 44 -4 58 -30 15 -29 15 -33
-4 -63 l-20 -32 33 -39 c31 -38 33 -39 69 -27 30 10 40 10 62 -5 23 -15 25
-21 20 -58 -6 -41 -5 -43 34 -70 l41 -29 34 26 c30 23 37 25 70 15 34 -11 36
-14 36 -54 0 -46 -5 -43 91 -59 34 -6 36 -5 54 34 15 34 23 41 46 41 22 0 35
-9 56 -41 24 -36 30 -40 56 -35 16 3 42 6 58 6 28 0 29 2 29 49 0 47 1 50 31
56 26 6 36 2 64 -25 31 -30 36 -32 62 -21 15 7 38 20 50 30 19 16 21 23 13 52
-15 51 -12 65 16 84 24 15 29 15 66 0 37 -15 42 -15 58 0 10 9 24 30 30 46 11
24 9 33 -8 61 -20 30 -20 34 -4 60 14 24 23 28 63 28 45 0 46 1 57 39 18 58
15 74 -18 96 -26 17 -29 24 -24 50 9 41 10 42 49 55 24 8 35 18 35 31 0 13 12
25 33 34 l32 14 -32 1 c-28 0 -33 4 -33 24 0 18 11 31 44 50 25 14 47 26 50
26 3 0 6 -21 6 -47 0 -27 6 -76 14 -111 l13 -64 -38 -75 c-24 -47 -43 -104
-50 -149 -11 -60 -17 -75 -37 -86 -40 -21 -113 -109 -143 -173 -16 -33 -29
-65 -29 -71 0 -6 -66 -28 -147 -49 -229 -58 -281 -87 -373 -209 l-45 -59 -25
34 c-14 19 -52 61 -85 95 -70 71 -108 87 -315 141 l-136 35 -22 56 c-29 74
-82 146 -136 184 -39 27 -44 36 -50 78 -8 62 -39 152 -71 206 -25 42 -25 44
-10 106 8 35 15 87 15 116 0 28 3 52 7 52 3 0 28 -14 54 -30z m838 -46 c25
-31 26 -55 7 -93 -21 -40 -60 -55 -96 -36 -43 22 -63 58 -55 95 14 62 105 84
144 34z m-255 -209 c-5 -12 -10 -13 -20 -4 -19 15 -18 19 6 19 13 0 18 -5 14
-15z m-173 -30 c57 -19 110 -37 116 -40 13 -4 -57 -138 -80 -152 -6 -3 -29 13
-51 39 -57 62 -123 188 -99 188 5 0 56 -16 114 -35z m859 29 c0 -4 -14 -34
-30 -68 -32 -65 -104 -156 -123 -156 -11 0 -104 148 -96 153 10 6 225 75 237
76 6 1 12 -2 12 -5z m-463 -69 c16 -34 16 -36 -3 -50 -24 -18 -35 -18 -59 -1
-18 13 -18 14 4 50 13 20 27 36 32 36 5 0 17 -16 26 -35z m-64 -81 c-1 -5 14
-9 33 -10 20 0 29 3 22 7 -8 5 -3 10 15 15 16 3 29 5 31 3 2 -2 26 -46 54 -97
34 -61 47 -94 39 -97 -38 -13 -109 -25 -159 -25 -64 0 -155 17 -164 31 -3 5
18 50 47 100 36 63 57 89 68 86 9 -2 15 -7 14 -13z"/>
<path d="M2340 2150 c0 -27 5 -50 10 -50 6 0 10 9 10 20 0 11 7 20 15 20 8 0
19 -9 25 -20 6 -11 16 -20 22 -20 6 0 4 9 -5 23 -14 21 -13 24 1 33 29 19 7
44 -38 44 l-40 0 0 -50z m70 25 c0 -9 -9 -15 -25 -15 -16 0 -25 6 -25 15 0 9
9 15 25 15 16 0 25 -6 25 -15z"/>
</g>
</svg>
